<svg width="22" height="22" viewBox="0 0 22 22" fill="none" xmlns="http://www.w3.org/2000/svg">
<path d="M5.51704 18.8146V9.66672C5.51704 8.51268 4.5815 7.57715 3.42746 7.57715C2.27342 7.57715 1.33789 8.51268 1.33789 9.66672V18.8146C1.33789 19.9687 2.27342 20.9042 3.42746 20.9042C4.5815 20.9042 5.51704 19.9686 5.51704 18.8146Z" stroke="black" stroke-width="1.5"/>
<path d="M16.821 7.28792C16.667 7.26866 16.5033 7.25903 16.3396 7.2494C13.9996 7.15311 12.6804 8.53973 12.2182 9.13675V9.13675C12.1639 9.20773 12.0352 9.16806 12.0352 9.07871V8.00173C12.0352 7.78832 11.8622 7.61532 11.6488 7.61532H10.0372C8.93364 7.61532 8.03906 8.50989 8.03906 9.61341V18.8528C8.03906 20.0068 8.9746 20.9423 10.1286 20.9423V20.9423C11.2827 20.9423 12.2182 20.0068 12.2182 18.8528C12.2182 18.1956 12.2182 17.5383 12.2182 16.8788C12.2182 16.1469 12.2182 15.4151 12.2182 14.6833C12.2182 13.7781 12.1508 12.8152 12.6034 11.987C12.9886 11.2937 13.6819 10.9471 14.4618 10.9471C16.7729 10.9471 16.821 13.0366 16.821 13.2292C16.821 13.2389 16.821 13.2485 16.821 13.2485C16.821 13.2485 16.821 13.2485 16.821 13.2485V18.9106C16.821 20.0646 17.7566 21.0001 18.9106 21.0001V21.0001C20.0646 21.0001 21.0002 20.0646 21.0002 18.9106V12.3048C21.0002 9.32934 19.4884 7.5768 16.821 7.28792Z" stroke="black" stroke-width="1.5"/>
<path d="M3.42659 5.8532C4.76677 5.8532 5.8532 4.76677 5.8532 3.4266C5.8532 2.08643 4.76677 1 3.42659 1C2.08642 1 1 2.08643 1 3.4266C1 4.76677 2.08642 5.8532 3.42659 5.8532Z" stroke="black" stroke-width="1.5"/>
</svg>
