<svg width="24" height="24" viewBox="0 0 24 24" fill="none" xmlns="http://www.w3.org/2000/svg">
<path d="M8.70954 9.94629H6.20215V17.9422H8.70954V9.94629Z" stroke="white" stroke-width="0.5"/>
<path d="M15.4926 9.77255C15.4002 9.761 15.302 9.75522 15.2037 9.74944C13.7998 9.69167 13.0083 10.5236 12.731 10.8818C12.6559 10.98 12.6212 11.0378 12.6212 11.0378V9.96899H10.2236V17.9649H12.6212H12.731C12.731 17.1503 12.731 16.3414 12.731 15.5268C12.731 15.0877 12.731 14.6487 12.731 14.2096C12.731 13.6665 12.6906 13.0888 12.9621 12.5919C13.1932 12.1759 13.6092 11.968 14.0771 11.968C15.4637 11.968 15.4926 13.2217 15.4926 13.3372C15.4926 13.343 15.4926 13.3488 15.4926 13.3488V17.9996H18V12.7826C18 10.9974 17.0929 9.94588 15.4926 9.77255Z" stroke="white" stroke-width="0.5"/>
<path d="M7.4559 8.9118C8.25997 8.9118 8.9118 8.25997 8.9118 7.4559C8.9118 6.65183 8.25997 6 7.4559 6C6.65183 6 6 6.65183 6 7.4559C6 8.25997 6.65183 8.9118 7.4559 8.9118Z" stroke="white" stroke-width="0.5"/>
</svg>
