<svg width="24" height="24" viewBox="0 0 24 24" fill="none" xmlns="http://www.w3.org/2000/svg">
<path d="M14.25 3V2.75H14H10H9.75V3C9.75 3.0055 9.75 3.01099 9.75 3.01646C9.74999 3.23808 9.74998 3.42903 9.77054 3.58195C9.79257 3.74583 9.84225 3.90291 9.96967 4.03033C10.0971 4.15775 10.2542 4.20743 10.4181 4.22946C10.571 4.25002 10.7619 4.25001 10.9835 4.25C10.989 4.25 10.9945 4.25 11 4.25H13L13.0165 4.25C13.2381 4.25001 13.429 4.25002 13.5819 4.22946C13.7458 4.20743 13.9029 4.15775 14.0303 4.03033C14.1577 3.90291 14.2074 3.74583 14.2295 3.58195C14.25 3.42903 14.25 3.23808 14.25 3.01645L14.25 3Z" stroke="white" stroke-width="0.5"/>
<circle cx="12" cy="18" r="1" fill="white"/>
<rect x="6.25" y="2.25" width="11.5" height="19.5" rx="1.75" stroke="white" stroke-width="0.5"/>
</svg>
