<svg width="24" height="24" viewBox="0 0 24 24" fill="none" xmlns="http://www.w3.org/2000/svg">
<path d="M2.07006 4.6C2.87006 1.14 8.08006 1.14 8.87006 4.6C9.34006 6.63 8.05006 8.35 6.93006 9.42C6.11006 10.2 4.82006 10.19 4.00006 9.42C2.89006 8.35 1.60006 6.63 2.07006 4.6Z" stroke="#7E7E7E" stroke-width="0.5"/>
<path d="M15.07 16.6C15.87 13.14 21.11 13.14 21.91 16.6C22.38 18.63 21.09 20.35 19.96 21.42C19.14 22.2 17.84 22.19 17.02 21.42C15.89 20.35 14.6 18.63 15.07 16.6Z" stroke="#7E7E7E" stroke-width="0.5"/>
<path d="M11.9997 5H14.6797C16.5297 5 17.3897 7.29 15.9997 8.51L8.0097 15.5C6.6197 16.71 7.4797 19 9.3197 19H11.9997" stroke="#7E7E7E" stroke-width="0.5" stroke-linecap="round" stroke-linejoin="round"/>
<path d="M5.48573 5.5H5.49728" stroke="#7E7E7E" stroke-width="2" stroke-linecap="round" stroke-linejoin="round"/>
<path d="M18.4857 17.5H18.4973" stroke="#7E7E7E" stroke-width="2" stroke-linecap="round" stroke-linejoin="round"/>
</svg>
