<svg width="48" height="48" viewBox="0 0 48 48" fill="none" xmlns="http://www.w3.org/2000/svg">
<path d="M4.14011 9.19977C5.74011 2.27977 16.1601 2.27977 17.7401 9.19977C18.6801 13.2598 16.1001 16.6998 13.8601 18.8398C12.2201 20.3998 9.64011 20.3798 8.00011 18.8398C5.78011 16.6998 3.20011 13.2598 4.14011 9.19977Z" stroke="#E10743" stroke-width="3"/>
<path d="M30.14 33.1998C31.74 26.2798 42.22 26.2798 43.82 33.1998C44.76 37.2598 42.18 40.6998 39.92 42.8398C38.28 44.3998 35.68 44.3798 34.04 42.8398C31.78 40.6998 29.2 37.2598 30.14 33.1998Z" stroke="#E10743" stroke-width="3"/>
<path d="M23.9994 10H29.3594C33.0594 10 34.7794 14.58 31.9994 17.02L16.0194 31C13.2394 33.42 14.9594 38 18.6394 38H23.9994" stroke="#E10743" stroke-width="3" stroke-linecap="round" stroke-linejoin="round"/>
<path d="M10.9715 11H10.9946" stroke="#E10743" stroke-width="3" stroke-linecap="round" stroke-linejoin="round"/>
<path d="M36.9715 35H36.9946" stroke="#E10743" stroke-width="3" stroke-linecap="round" stroke-linejoin="round"/>
</svg>
