<?xml version="1.0" standalone="no"?>
<!DOCTYPE svg PUBLIC "-//W3C//DTD SVG 20010904//EN"
 "http://www.w3.org/TR/2001/REC-SVG-20010904/DTD/svg10.dtd">
<svg version="1.0" xmlns="http://www.w3.org/2000/svg"
 width="872.000000pt" height="872.000000pt" viewBox="0 0 872.000000 872.000000"
 preserveAspectRatio="xMidYMid meet">
<metadata>
Created by potrace 1.14, written by Peter Selinger 2001-2017
</metadata>
<g transform="translate(0.000000,872.000000) scale(0.100000,-0.100000)"
fill="#000000" stroke="none">
<path d="M3483 8181 c-102 -35 -174 -98 -241 -210 -23 -39 -42 -75 -42 -81 0
-5 -4 -10 -10 -10 -5 0 -10 -4 -10 -10 0 -5 -14 -33 -31 -62 -37 -62 -62 -105
-97 -168 -14 -25 -33 -57 -43 -72 -11 -14 -19 -28 -19 -31 0 -3 -20 -40 -45
-81 -25 -42 -45 -81 -45 -86 0 -6 -4 -10 -8 -10 -5 0 -17 -19 -28 -42 -10 -24
-21 -45 -25 -48 -3 -3 -50 -81 -104 -175 -128 -223 -126 -220 -165 -290 -18
-33 -38 -67 -45 -75 -7 -8 -14 -20 -16 -25 -2 -6 -24 -45 -49 -88 -25 -43 -52
-90 -60 -105 -13 -24 -175 -303 -207 -357 -6 -11 -20 -36 -31 -55 -10 -19 -40
-70 -65 -113 -26 -43 -47 -80 -47 -83 0 -2 -15 -27 -34 -56 -18 -29 -36 -63
-40 -75 -4 -13 -12 -23 -17 -23 -5 0 -9 -4 -9 -10 0 -5 -22 -47 -49 -92 -27
-46 -111 -191 -187 -323 -200 -349 -305 -528 -316 -542 -6 -7 -7 -13 -2 -13 5
0 5 -4 -1 -8 -5 -4 -15 -16 -21 -27 -28 -51 -39 -70 -45 -75 -3 -3 -12 -18
-21 -35 -28 -57 -53 -100 -59 -105 -4 -3 -9 -15 -13 -27 -4 -13 -12 -23 -17
-23 -5 0 -9 -4 -9 -9 0 -6 -28 -59 -63 -119 -35 -60 -67 -115 -70 -123 -4 -8
-18 -32 -32 -54 -14 -22 -28 -47 -32 -55 -4 -8 -22 -38 -40 -67 -18 -29 -33
-54 -33 -57 0 -9 -84 -151 -92 -154 -4 -2 -8 -12 -8 -22 0 -10 -4 -20 -8 -22
-10 -4 -92 -146 -92 -159 0 -5 -4 -9 -10 -9 -5 0 -10 -4 -10 -9 0 -5 -31 -62
-69 -127 -38 -66 -82 -141 -96 -169 -15 -27 -37 -65 -50 -85 -12 -19 -23 -38
-24 -42 0 -5 -17 -32 -36 -62 -19 -30 -35 -57 -35 -60 0 -3 -16 -30 -35 -60
-19 -30 -35 -57 -35 -59 0 -3 -36 -65 -79 -140 -84 -144 -117 -201 -147 -257
-11 -19 -21 -37 -24 -40 -12 -11 -70 -128 -73 -146 -1 -11 -6 -24 -9 -30 -11
-17 -1 -175 13 -214 11 -32 20 -48 61 -121 7 -13 18 -27 23 -31 6 -4 6 -8 1
-8 -5 0 -2 -8 6 -17 8 -10 26 -38 39 -63 13 -25 26 -47 29 -50 3 -3 12 -18 20
-35 8 -16 22 -41 31 -55 10 -14 32 -53 50 -85 17 -33 39 -68 47 -77 8 -10 11
-18 6 -18 -5 0 -4 -4 1 -8 6 -4 16 -18 24 -31 22 -40 115 -200 135 -234 11
-18 29 -50 40 -72 12 -22 34 -59 49 -82 15 -24 27 -45 27 -48 0 -2 18 -34 40
-70 22 -36 40 -70 40 -75 0 -6 5 -10 10 -10 6 0 9 -3 8 -7 -1 -5 5 -19 14 -33
8 -14 34 -56 56 -95 37 -66 102 -155 102 -142 0 3 11 -5 25 -19 33 -33 122
-72 187 -81 29 -5 1509 -8 3288 -7 3052 1 3238 2 3294 18 83 24 148 71 216
153 6 7 10 15 10 19 0 3 8 18 19 32 10 15 74 124 141 242 68 118 127 217 132
218 4 2 8 12 8 22 0 9 7 23 15 30 8 7 15 16 15 21 0 5 24 48 53 96 29 48 56
95 60 103 4 8 17 32 30 52 12 21 35 61 51 90 15 29 34 60 41 68 7 8 16 25 19
38 4 12 12 22 17 22 5 0 9 9 9 19 0 11 4 22 9 26 12 7 145 239 165 287 26 62
35 159 21 233 -7 37 -96 215 -107 215 -4 0 -8 5 -8 10 0 6 -38 74 -83 153 -46
78 -95 162 -109 187 -14 25 -34 61 -45 80 -11 19 -29 51 -39 70 -11 19 -25 40
-31 48 -7 7 -13 20 -13 28 0 8 -4 14 -10 14 -5 0 -10 6 -10 14 0 8 -6 21 -13
28 -6 7 -21 31 -32 53 -11 22 -22 42 -25 45 -3 3 -11 16 -18 29 -35 61 -51 90
-81 139 -17 29 -31 57 -31 62 0 6 -4 10 -10 10 -5 0 -10 5 -10 11 0 6 -22 48
-50 95 -27 47 -50 89 -50 93 0 5 -4 11 -8 13 -5 1 -24 32 -43 68 -18 36 -36
67 -39 70 -10 9 -280 482 -280 491 0 5 -4 9 -10 9 -5 0 -10 6 -10 13 0 7 -16
36 -35 66 -19 29 -35 55 -35 57 0 5 -51 93 -88 152 -12 21 -27 48 -33 62 -6
14 -16 32 -23 40 -7 8 -27 40 -43 70 -17 30 -53 95 -82 143 -28 49 -51 93 -51
98 0 5 -4 9 -10 9 -5 0 -10 6 -10 14 0 7 -7 19 -15 26 -8 6 -13 15 -12 18 1 4
-24 51 -56 104 -31 53 -57 100 -57 103 0 4 -12 25 -27 48 -43 65 -53 81 -60
97 -4 8 -26 48 -50 88 -24 40 -43 77 -43 82 0 6 -4 10 -9 10 -5 0 -15 15 -22
33 -7 17 -35 67 -61 109 -26 43 -48 82 -48 88 0 5 -4 10 -8 10 -4 0 -13 12
-19 28 -7 15 -25 50 -42 77 -17 28 -34 57 -38 65 -5 8 -34 60 -66 115 -65 111
-58 101 -121 208 -25 43 -46 82 -46 87 0 6 -4 10 -9 10 -5 0 -11 8 -14 18 -7
20 -70 133 -96 171 -9 14 -25 42 -35 61 -18 37 -38 72 -46 80 -3 3 -10 14 -16
25 -45 82 -83 149 -114 200 -20 33 -65 111 -101 173 -35 62 -69 121 -74 130
-6 9 -30 53 -54 97 -25 44 -48 82 -53 83 -4 2 -8 8 -8 13 0 4 -20 43 -45 85
-25 41 -45 78 -45 82 0 3 -6 13 -14 21 -7 9 -30 46 -50 84 -118 218 -171 284
-267 332 -27 14 -49 22 -49 19 0 -4 -7 0 -17 7 -13 12 -160 14 -852 16 -776 2
-840 0 -888 -16z m671 -2941 c11 3 38 4 60 0 23 -3 55 -3 71 0 17 4 40 3 53
-2 13 -4 22 -4 22 3 0 6 7 6 19 -1 14 -7 22 -7 26 0 4 6 10 8 14 5 5 -2 42 -5
82 -5 41 0 83 0 94 0 11 0 30 0 43 0 13 0 36 -7 52 -15 30 -16 80 -64 80 -77
0 -4 17 -36 38 -70 21 -35 41 -70 45 -78 4 -8 17 -31 28 -50 12 -19 60 -102
107 -185 47 -82 89 -152 92 -155 3 -3 11 -16 17 -30 7 -14 25 -47 41 -75 50
-85 103 -178 130 -225 14 -25 35 -61 47 -80 12 -19 25 -42 28 -50 4 -8 15 -28
26 -45 10 -16 28 -47 40 -67 11 -21 30 -54 41 -73 11 -19 28 -50 39 -67 10
-18 60 -105 111 -193 51 -88 102 -176 113 -195 10 -19 28 -47 38 -61 10 -14
16 -29 12 -33 -3 -3 -1 -6 5 -6 7 0 12 -4 12 -9 0 -4 30 -60 67 -122 89 -153
92 -159 99 -197 8 -43 -1 -63 -130 -287 -60 -104 -121 -210 -134 -235 -65
-117 -82 -123 -362 -119 -8 0 -80 0 -160 0 -80 0 -152 0 -160 0 -8 0 -80 0
-160 0 -80 0 -152 0 -160 0 -8 0 -80 0 -160 0 -80 0 -152 0 -160 0 -8 0 -80 0
-160 0 -80 0 -154 0 -165 0 -11 0 -209 0 -440 0 -231 0 -433 2 -450 5 -16 3
-42 17 -57 31 -22 21 -89 128 -142 228 -6 11 -16 27 -22 35 -7 8 -24 38 -39
65 -14 28 -36 66 -47 85 -98 167 -98 178 -4 339 36 63 66 118 66 122 0 5 3 9
8 9 4 0 12 10 17 23 16 32 59 111 65 117 3 3 68 115 145 249 77 134 152 265
167 290 15 25 31 53 35 61 3 8 20 38 37 65 18 28 43 71 56 98 14 26 28 47 32
47 5 0 8 5 8 10 0 9 134 246 225 400 61 102 96 165 102 183 3 9 8 17 12 17 4
0 13 16 21 35 8 19 17 35 20 35 4 0 17 23 30 50 13 28 27 50 32 50 4 0 8 5 8
12 0 6 14 33 30 59 22 33 43 52 71 63 22 9 44 14 49 11 5 -3 11 -1 15 4 3 6
15 7 28 2 12 -5 31 -5 41 -1z"/>
</g>
</svg>
