<?xml version="1.0" standalone="no"?>
<!DOCTYPE svg PUBLIC "-//W3C//DTD SVG 20010904//EN"
 "http://www.w3.org/TR/2001/REC-SVG-20010904/DTD/svg10.dtd">
<svg version="1.0" xmlns="http://www.w3.org/2000/svg"
 width="263.000000pt" height="263.000000pt" viewBox="0 0 263.000000 263.000000"
 preserveAspectRatio="xMidYMid meet">
<metadata>
Created by potrace 1.14, written by Peter Selinger 2001-2017
</metadata>
<g transform="translate(0.000000,263.000000) scale(0.100000,-0.100000)"
fill="#000000" stroke="none">
<path d="M1278 2600 c-24 -7 -113 -53 -273 -140 -27 -15 -86 -46 -130 -70
-113 -60 -130 -79 -130 -141 0 -45 4 -54 33 -80 55 -49 79 -43 302 76 162 87
204 105 240 105 42 0 96 -25 335 -155 474 -258 572 -308 608 -308 72 0 125 69
106 137 -14 50 -8 45 -319 213 -468 252 -601 323 -635 341 -49 24 -100 33
-137 22z"/>
<path d="M321 2089 c-38 -23 -54 -61 -48 -113 7 -50 22 -63 132 -121 50 -26
104 -55 120 -65 17 -10 64 -35 105 -57 41 -22 203 -109 359 -193 341 -184 327
-181 478 -99 100 54 112 60 289 155 55 30 109 63 119 73 9 11 20 40 22 65 5
42 3 48 -30 81 -29 29 -42 35 -79 35 -24 0 -48 -4 -53 -9 -10 -8 -123 -69
-295 -159 -117 -60 -135 -58 -321 43 -79 43 -171 92 -204 110 -173 92 -241
128 -315 170 -46 25 -84 45 -86 45 -3 0 -22 11 -45 25 -53 34 -107 39 -148 14z"/>
<path d="M162 1813 c-70 -34 -67 -9 -67 -594 l0 -527 30 -42 c25 -35 60 -59
195 -132 304 -165 349 -187 377 -182 84 16 125 92 88 163 -17 33 -51 54 -319
195 -72 38 -110 76 -124 124 -8 25 -11 185 -11 480 l0 444 -23 34 c-14 22 -36
38 -58 44 -45 13 -49 13 -88 -7z"/>
<path d="M2365 1811 c-16 -10 -68 -38 -115 -63 -47 -25 -121 -65 -165 -88
-172 -92 -254 -137 -425 -229 -41 -23 -104 -56 -139 -74 -71 -35 -127 -84
-142 -125 -8 -21 -13 -310 -10 -525 1 -50 51 -106 101 -111 48 -5 104 25 120
64 8 20 13 95 15 228 1 118 7 207 13 222 24 53 49 71 207 155 61 32 115 61
120 65 6 4 64 35 130 70 66 35 159 85 208 112 48 26 89 48 91 48 13 0 133 76
149 93 23 27 22 105 -1 133 -39 47 -103 57 -157 25z"/>
<path d="M633 1565 c-61 -26 -83 -117 -40 -166 12 -15 102 -70 200 -123 187
-100 190 -103 222 -151 19 -29 20 -49 20 -490 1 -433 2 -462 20 -492 43 -73
156 -74 199 -2 17 29 18 67 18 543 0 282 -3 524 -7 537 -12 38 -55 90 -89 106
-17 8 -49 24 -71 36 -259 142 -391 210 -413 213 -15 2 -41 -3 -59 -11z"/>
<path d="M2363 1298 c-18 -13 -37 -33 -42 -46 -7 -13 -11 -100 -11 -210 0
-103 -4 -203 -10 -221 -9 -32 -74 -111 -92 -111 -6 0 -108 -54 -273 -145 -22
-12 -152 -82 -288 -155 -265 -142 -277 -152 -277 -224 0 -48 42 -95 92 -103
37 -6 62 5 230 97 25 14 75 40 110 59 34 18 86 46 113 61 28 15 91 49 140 75
50 27 159 86 243 132 84 46 156 83 159 83 12 0 64 61 73 86 6 14 10 147 10
297 0 230 -2 276 -16 295 -35 51 -112 65 -161 30z"/>
</g>
</svg>
