<svg width="1346" height="1228" viewBox="0 0 1346 1228" fill="none" xmlns="http://www.w3.org/2000/svg">
<path d="M552.315 1217.96C285.106 1151.12 -99.7761 886.741 23.8727 626.277C147.521 365.812 36.7542 304.185 654.473 63.0819C1272.19 -178.022 1408.94 333.443 1182.91 654.769C956.886 976.095 819.523 1284.81 552.315 1217.96Z" fill="#252426"/>
<path d="M570.817 1153.41C331.752 1087.46 5.89575 840.264 148.575 606.92C291.255 373.577 195.885 315.527 792.064 109.734C1388.24 -96.0592 1458.09 369.847 1214.31 656.224C970.517 942.602 809.882 1219.36 570.817 1153.41Z" fill="#282829"/>
<path d="M529.244 1058.7C343.557 984.36 101.101 756.653 230.374 581.938C359.646 407.223 287.718 352.066 775.834 240.004C1263.95 127.941 1287.99 508.48 1074.7 716.767C861.422 925.055 714.931 1133.04 529.244 1058.7Z" fill="#2A2A2C"/>
</svg>
