<svg width="829" height="1210" viewBox="0 0 829 1210" fill="none" xmlns="http://www.w3.org/2000/svg">
<path d="M790.74 306.007C906.166 558.242 738.384 579.983 564.301 997.976C390.219 1415.97 7.91246 1137.64 45.9979 828.367C84.0833 519.092 -50.7108 413.729 272.437 136.398C595.585 -140.933 675.315 53.7729 790.74 306.007Z" fill="#252426"/>
<path d="M724.981 360.734C811.662 599.437 656.95 606.873 467.194 975.431C277.438 1343.99 -50.8496 1061.75 6.76864 782.341C64.3869 502.936 -50.8264 396.825 264.556 167.644C579.939 -61.5367 638.3 122.031 724.981 360.734Z" fill="#282829"/>
<path d="M661.435 376.578C744.473 589.841 605.24 599.745 441.913 935.725C278.586 1271.71 -23.0278 1024.22 23.0966 771.297C69.221 518.375 -36.7775 425.161 242.618 212.15C522.014 -0.86055 578.397 163.315 661.435 376.578Z" fill="#2A2A2C"/>
</svg>
