<svg width="881" height="851" viewBox="0 0 881 851" fill="none" xmlns="http://www.w3.org/2000/svg">
<path d="M22.8641 411.886C-81.0724 74.3859 199.566 82.7512 410.436 10.715C621.306 -61.3213 804.728 276.844 785.577 400.848C766.426 524.852 647.677 905.526 348.908 820.737C50.1387 735.948 126.801 749.385 22.8641 411.886Z" fill="#252426"/>
<path d="M92.1861 381.663C32.343 35.8318 307.926 79.5448 524.885 35.1831C741.845 -9.17848 879.957 347.354 845.422 467.173C810.887 586.992 645.767 947.24 361.962 825.901C78.1564 704.561 152.029 727.495 92.1861 381.663Z" fill="#282829"/>
<path d="M175.313 393.221C130.84 68.9803 386.247 118.692 589.896 84.4153C793.545 50.1385 910.612 386.901 874.512 497.439C838.412 607.978 672.754 938.328 412.221 816.006C151.687 693.683 219.785 717.462 175.313 393.221Z" fill="#2A2A2C"/>
</svg>
